<svg xmlns="http://www.w3.org/2000/svg" viewBox="0 0 64 64"><path fill="#231f20" d="M18.5 24l1.5-1v-1h-3v1zM21 17h-1v-2.5h-1V17h-1v-2.5h-1V17h-1v4h5zM52.5 38.525V32.5h-7v6h-4v-6h-7v6h-4v-6h-7v6h-4v-9h-4v-3H19v-1.833l-.5.333-.5-.333v.833h-3.5v5h4v2h-6v6H12c-3.032 0-5.5 2.468-5.5 5.5s2.468 5.5 5.5 5.5h40c3.032 0 5.5-2.468 5.5-5.5a5.507 5.507 0 0 0-5-5.475zM52 48.5H12c-2.481 0-4.5-2.019-4.5-4.5s2.019-4.5 4.5-4.5h40c2.481 0 4.5 2.019 4.5 4.5s-2.019 4.5-4.5 4.5z"/><circle cx="37" cy="44" r="1" fill="#231f20"/><circle cx="42" cy="44" r="1" fill="#231f20"/><circle cx="32" cy="44" r="1" fill="#231f20"/><circle cx="27" cy="44" r="1" fill="#231f20"/><circle cx="22" cy="44" r="1" fill="#231f20"/><circle cx="12" cy="44" r="1" fill="#231f20"/><path fill="#231f20" d="M52 40.5H12c-1.93 0-3.5 1.57-3.5 3.5s1.57 3.5 3.5 3.5h40c1.93 0 3.5-1.57 3.5-3.5s-1.57-3.5-3.5-3.5zM12 46c-1.103 0-2-.897-2-2s.897-2 2-2 2 .897 2 2-.897 2-2 2zm5 0c-1.103 0-2-.897-2-2s.897-2 2-2 2 .897 2 2-.897 2-2 2zm5 0c-1.103 0-2-.897-2-2s.897-2 2-2 2 .897 2 2-.897 2-2 2zm5 0c-1.103 0-2-.897-2-2s.897-2 2-2 2 .897 2 2-.897 2-2 2zm5 0c-1.103 0-2-.897-2-2s.897-2 2-2 2 .897 2 2-.897 2-2 2zm5 0c-1.103 0-2-.897-2-2s.897-2 2-2 2 .897 2 2-.897 2-2 2zm5 0c-1.103 0-2-.897-2-2s.897-2 2-2 2 .897 2 2-.897 2-2 2zm5 0c-1.103 0-2-.897-2-2s.897-2 2-2 2 .897 2 2-.897 2-2 2zm5 0c-1.103 0-2-.897-2-2s.897-2 2-2 2 .897 2 2-.897 2-2 2z"/><circle cx="52" cy="44" r="1" fill="#231f20"/><circle cx="17" cy="44" r="1" fill="#231f20"/><circle cx="47" cy="44" r="1" fill="#231f20"/><path fill="#231f20" d="M10 20h5v-2h-5a1 1 0 0 1-1-1H7a3 3 0 0 0 3 3zM57 17h-2a1 1 0 0 1-1 1H22v2h32a3 3 0 0 0 3-3z"/></svg>