<svg xmlns="http://www.w3.org/2000/svg" enable-background="new 0 0 48 48" viewBox="0 0 48 48"><path d="M16,19.4c-0.4,0.6-0.7,1.3-0.9,2L12,21.7v4.5l3.1,0.3c0.2,0.7,0.5,1.4,0.9,2.1L14,31l3.2,3.2l2.4-2c0.6,0.4,1.3,0.7,2,0.8
		l0.3,3.1h4.5l0.3-3.1c0.7-0.2,1.4-0.5,2-0.8l2.4,2l3.2-3.2l-2-2.4c0.4-0.6,0.6-1.3,0.8-2l3.1-0.3v-4.5l-3.1-0.3
		c-0.2-0.7-0.5-1.4-0.9-2l2-2.4L31,13.9l-2.4,2c-0.6-0.4-1.3-0.7-2-0.8L26.3,12h-4.5l-0.3,3.1c-0.7,0.2-1.4,0.5-2,0.8l-2.4-2
		L13.9,17L16,19.4z M24,20.1c2.1,0,3.8,1.7,3.8,3.8s-1.7,3.8-3.8,3.8s-3.8-1.7-3.8-3.8S21.9,20.1,24,20.1z"/><polygon points="43.4 43.8 41.4 43.8 41.4 40.5 38.8 40.5 38.8 42.6 36.8 42.6 36.8 40.5 34.2 40.5 34.2 43.8 32.2 43.8 32.2 40.5 29.6 40.5 29.6 42.6 27.6 42.6 27.6 40.5 25 40.5 25 43.8 23 43.8 23 40.5 20.4 40.5 20.4 42.6 18.4 42.6 18.4 40.5 15.8 40.5 15.8 43.8 13.8 43.8 13.8 40.5 11.2 40.5 11.2 42.6 9.2 42.6 9.2 40.5 6.6 40.5 6.6 43.8 4.6 43.8 4.6 40.5 1 40.5 1 47.9 47 47.9 47 40.5 43.4 40.5"/><path d="M44.8 20.8c-1.4 0-2.6.9-3 2.2h-2.5v1.9h2.5c.4 1.3 1.6 2.2 3 2.2 1.8 0 3.2-1.4 3.2-3.2C48 22.2 46.6 20.8 44.8 20.8zM44.8 25.2c-.7 0-1.3-.6-1.3-1.3 0-.7.6-1.3 1.3-1.3s1.3.6 1.3 1.3C46.1 24.7 45.5 25.2 44.8 25.2zM6.2 24.9h2.5V23H6.2c-.4-1.3-1.6-2.2-3-2.2C1.4 20.8 0 22.2 0 24s1.4 3.2 3.2 3.2C4.6 27.1 5.8 26.2 6.2 24.9zM1.9 24c0-.7.6-1.3 1.3-1.3s1.3.6 1.3 1.3c0 .7-.6 1.3-1.3 1.3S1.9 24.7 1.9 24zM10.4 8.8c2.4 0 4.4-2 4.4-4.4 0-.7-.2-1.3-.4-1.9L10.8 6 8.5 3.7l1.4-1.4.9.9L13 1c-.7-.6-1.7-.9-2.7-.9C8 .1 6 2 6 4.4S8 8.8 10.4 8.8zM23.6 8.8c2.4 0 4.4-2 4.4-4.4 0-.7-.2-1.3-.4-1.9L24 6l-2.3-2.3 1.4-1.4L24 3.2 26.2 1c-.7-.6-1.6-.9-2.6-.9-2.4 0-4.4 2-4.4 4.4S21.2 8.8 23.6 8.8zM36.8 8.8c2.4 0 4.4-2 4.4-4.4 0-.7-.2-1.3-.4-1.9L37.2 6l-2.3-2.3 1.4-1.4.9.9L39.4 1c-.7-.6-1.6-.9-2.6-.9-2.4 0-4.4 2-4.4 4.4S34.4 8.8 36.8 8.8z"/></svg>