<svg xmlns="http://www.w3.org/2000/svg" width="48" height="48" enable-background="new 0 0 48 48" viewBox="0 0 48 48"><path d="M38,30h-4c-0.552,0-1-0.447-1-1v-4c0-0.553,0.448-1,1-1h4c0.552,0,1,0.447,1,1v4C39,29.553,38.552,30,38,30z M35,28h2v-2
		h-2V28z"/><path d="M34,30h-4c-0.552,0-1-0.447-1-1v-8c0-0.553,0.448-1,1-1h4c0.552,0,1,0.447,1,1v8C35,29.553,34.552,30,34,30z M31,28h2v-6
		h-2V28z"/><path d="M30,30h-4c-0.552,0-1-0.447-1-1v-8c0-0.553,0.448-1,1-1h4c0.552,0,1,0.447,1,1v8C31,29.553,30.552,30,30,30z M27,28h2v-6
		h-2V28z"/><path d="M26,30h-4c-0.552,0-1-0.447-1-1v-8c0-0.553,0.448-1,1-1h4c0.552,0,1,0.447,1,1v8C27,29.553,26.552,30,26,30z M23,28h2v-6
		h-2V28z"/><path d="M42,26h-8c-0.552,0-1-0.447-1-1v-3H22c-0.552,0-1-0.447-1-1V11c0-0.266,0.105-0.52,0.293-0.707L22,9.586V5
		c0-0.553,0.448-1,1-1h18c0.552,0,1,0.447,1,1v4.586l0.707,0.707C42.895,10.48,43,10.734,43,11v14C43,25.553,42.552,26,42,26z
		 M35,24h6V11.414l-0.707-0.707C40.105,10.52,40,10.266,40,10V6H24v4c0,0.266-0.105,0.52-0.293,0.707L23,11.414V20h11
		c0.552,0,1,0.447,1,1V24z"/><path d="M38 22c-.552 0-1-.447-1-1v-3h-3c-.552 0-1-.447-1-1v-4c0-.553.448-1 1-1s1 .447 1 1v3h3c.552 0 1 .447 1 1v4C39 21.553 38.552 22 38 22zM44 6H20c-.552 0-1-.447-1-1V1c0-.553.448-1 1-1h24c.552 0 1 .447 1 1v4C45 5.553 44.552 6 44 6zM21 4h22V2H21V4zM18 36H8c-.552 0-1-.447-1-1V21.999c0-.314.148-.611.4-.8l4-2.999c.173-.13.384-.2.6-.2h6c.552 0 1 .447 1 1v16C19 35.553 18.552 36 18 36zM9 34h8V20h-4.667L9 22.499V34z"/><path d="M22 30h-4c-.552 0-1-.447-1-1v-4c0-.553.448-1 1-1h4c.552 0 1 .447 1 1v4C23 29.553 22.552 30 22 30zM19 28h2v-2h-2V28zM8 30H4c-.552 0-1-.447-1-1v-4c0-.553.448-1 1-1h4c.552 0 1 .447 1 1v4C9 29.553 8.552 30 8 30zM5 28h2v-2H5V28zM35 48H4c-.552 0-1-.447-1-1v-8c0-.553.448-1 1-1h31c.552 0 1 .447 1 1v8C36 47.553 35.552 48 35 48zM5 46h29v-6H5V46z"/><path d="M38,46h-3c-0.552,0-1-0.447-1-1v-6c0-0.553,0.448-1,1-1h9c0.552,0,1,0.447,1,1C45,42.859,41.86,46,38,46z M36,44h2
		c2.415,0,4.435-1.721,4.899-4H36V44z"/><rect width="5" height="2" x="33" y="20"/></svg>